<svg xmlns="http://www.w3.org/2000/svg" xmlns:xlink="http://www.w3.org/1999/xlink" version="1.1" x="0px" y="0px" viewBox="0 0 100 125" enable-background="new 0 0 100 100" xml:space="preserve"><path fill="#000000" d="M51.088,22.863c-14.378,0-26.075,11.698-26.075,26.076c0,14.377,11.697,26.074,26.075,26.074  c14.379,0,26.076-11.697,26.076-26.074C77.163,34.561,65.467,22.863,51.088,22.863z M75.947,49.328l-0.041-0.015  c-2.013-0.729-4.119-1.551-6.431-2.504c-0.196-1.921-0.453-3.901-0.76-5.902c1.644-1.08,3.196-2.061,4.66-2.955  c1.643,3.319,2.592,7.041,2.592,10.988C75.967,49.071,75.949,49.197,75.947,49.328z M62.492,71.024  c-1.221-0.411-2.498-0.874-3.903-1.432c-0.035-2.093-0.12-4.296-0.249-6.553c1.812-1.463,3.609-2.887,5.349-4.234  c1.972,0.773,3.781,1.431,5.503,2.005c-0.059,1.896-0.189,3.763-0.388,5.567C66.967,68.242,64.836,69.809,62.492,71.024z   M35.289,64.849c1.357-0.928,2.849-1.969,4.542-3.171l1.042,0.536c1.635,0.84,3.249,1.669,4.833,2.476l0.848,6.69  c-0.656,0.539-1.275,1.051-1.895,1.564c-3.036-0.814-5.839-2.184-8.302-4.003C35.985,67.554,35.614,66.169,35.289,64.849z   M59.929,30.461c0.424,2.301,0.792,4.442,1.125,6.526c-1.694,1.207-3.429,2.461-5.186,3.741l-1.587-0.711  c-1.504-0.674-3.001-1.345-4.488-2.005c-0.205-2.241-0.401-4.481-0.584-6.72c1.673-1.298,3.305-2.575,4.874-3.805  C55.991,28.447,57.944,29.445,59.929,30.461z M57.02,48.214c-0.184-2.091-0.395-4.266-0.642-6.628  c1.757-1.253,3.492-2.481,5.188-3.662c2.05,0.98,4.112,1.955,6.182,2.907c0.326,2.093,0.593,4.167,0.795,6.172  c-1.689,1.14-3.491,2.391-5.362,3.717C61.347,49.999,59.323,49.174,57.02,48.214z M63.116,57.929  c-1.748,1.354-3.543,2.772-5.342,4.223c-1.752-0.699-3.635-1.484-5.724-2.386c-0.239-2.21-0.494-4.422-0.757-6.634  c1.767-1.342,3.553-2.694,5.34-4.033c2.323,1.028,4.275,1.872,6.092,2.632c0.125,1.388,0.204,2.731,0.288,4.081  C63.042,56.511,63.099,57.242,63.116,57.929z M50.332,53.207c0.215,2.219,0.424,4.438,0.62,6.654  c-1.731,1.304-3.419,2.584-5.049,3.821c-1.466-0.747-2.956-1.511-4.466-2.287l-1.306-0.671c-0.389-2.292-0.739-4.523-1.043-6.643  c1.696-1.179,3.424-2.399,5.171-3.644l2.319,1.058C47.835,52.068,49.086,52.64,50.332,53.207z M43.38,42.008  c-2.25-1.002-4.152-1.829-5.939-2.579c-0.121-2.157-0.191-4.288-0.209-6.346c1.767-1.323,3.606-2.727,5.472-4.18  c1.636,0.72,3.432,1.544,5.459,2.501c0.211,2.233,0.438,4.467,0.674,6.703C47.035,39.403,45.21,40.71,43.38,42.008z M36.187,33.291  c0.03,2.044,0.113,4.163,0.245,6.307c-1.944,1.389-3.815,2.695-5.57,3.886c-1.283-0.518-2.49-0.984-3.664-1.424  c1.091-3.781,3.057-7.183,5.662-9.996C33.923,32.438,35.017,32.838,36.187,33.291z M37.024,40.383  c1.78,0.736,3.731,1.573,5.952,2.55c0.077,0.847,0.163,1.719,0.249,2.597c0.119,1.299,0.247,2.628,0.388,4.017  c-1.774,1.263-3.531,2.503-5.251,3.698c-2.344-1.106-4.322-2.019-6.181-2.857c-0.301-2.079-0.544-4.136-0.722-6.124  C33.226,43.066,35.051,41.792,37.024,40.383z M47.188,72.1c1.2,0.62,2.292,1.168,3.343,1.688c-1.617-0.036-3.198-0.217-4.725-0.549  C46.261,72.863,46.713,72.49,47.188,72.1z M58.048,70.407c-0.066-0.027-0.125-0.048-0.191-0.075h0.003  c0.067,0.027,0.125,0.048,0.191,0.075c0,0,0.001-0.001,0.001-0.001c1.142,0.456,2.198,0.848,3.217,1.208  c-2.1,0.947-4.354,1.6-6.714,1.932C55.705,72.498,56.863,71.449,58.048,70.407z M69.677,59.805  C69.677,59.805,69.678,59.805,69.677,59.805c0.05,0.015,0.102,0.032,0.151,0.046l0.349,0.105v0.003l-0.347-0.105  C69.78,59.839,69.726,59.82,69.677,59.805z M70.154,60.646C70.154,60.646,70.154,60.646,70.154,60.646  c0-0.002,0.001-0.004,0.001-0.006c1.438-1.072,2.84-2.07,4.231-3.054c-1.053,2.827-2.596,5.41-4.541,7.646  C69.983,63.727,70.109,62.207,70.154,60.646z M72.955,37.083c-1.453,0.887-3.001,1.865-4.632,2.935  c-2.07-0.951-4.134-1.926-6.185-2.906c-0.31-2.084-0.667-4.276-1.06-6.525c1.299-0.927,2.455-1.737,3.547-2.492  C68.091,30.353,70.97,33.437,72.955,37.083z M53.758,24.209c0.089,0.727,0.177,1.454,0.265,2.18l-0.053-0.027l-0.239,0.188  c-1.646,1.291-3.368,2.638-5.131,4.006c-2.151-1.017-4.055-1.89-5.774-2.643l-0.261-0.115l-0.021,0.016  c-0.014-0.734-0.021-1.467-0.027-2.2c2.677-0.987,5.555-1.553,8.57-1.553C51.99,24.06,52.88,24.114,53.758,24.209z M26.956,42.998  c1.147,0.432,2.311,0.877,3.563,1.382c0.184,2.054,0.429,4.175,0.744,6.325c-1.646,1.081-3.157,2.04-4.597,2.922  c-0.291-1.52-0.457-3.084-0.457-4.688C26.209,46.889,26.486,44.906,26.956,42.998z M30.38,62.701  c1.321,0.727,2.643,1.454,3.933,2.179c0.246,1.005,0.523,2.055,0.798,3.103C33.296,66.457,31.7,64.68,30.38,62.701z"/><text x="0" y="115" fill="#000000" font-size="5px" font-weight="bold" font-family="'Helvetica Neue', Helvetica, Arial-Unicode, Arial, Sans-serif">Created by Demograph™</text><text x="0" y="120" fill="#000000" font-size="5px" font-weight="bold" font-family="'Helvetica Neue', Helvetica, Arial-Unicode, Arial, Sans-serif">from the Noun Project</text></svg>